<svg width="1150" height="1150" viewBox="0 0 1150 1150" fill="none" xmlns="http://www.w3.org/2000/svg">
<rect width="1150" height="1150" rx="200" fill="#003ECB"/>
<path opacity="0.07" d="M915 510.3C915 514.8 914.9 519.3 914.6 523.5C957.6 556.2 990.7 626.3 990.7 688C990.7 755.2 951.4 786.9 902.9 758.9C902.8 758.8 902.7 758.8 902.6 758.7L597.9 583C597.8 582.9 597.7 582.9 597.5 582.8C543 551.3 498.8 464.6 498.8 389.1C498.8 318.4 537.6 282.5 587.3 304.2C593.4 255.7 625.9 234.8 665.1 257.5C683.9 268.4 701.2 287.5 714.7 310.5C734.3 281.4 767.7 274 805.5 295.8C866 330.6 915 426.7 915 510.3Z" fill="url(#paint0_linear_510:1544)"/>
<path opacity="0.4" d="M865 558.3C865 562.8 864.9 567.3 864.6 571.5C907.6 604.2 940.7 674.3 940.7 736C940.7 803.2 901.4 834.9 852.9 806.9C852.8 806.8 852.7 806.8 852.6 806.7L547.9 631C547.8 630.9 547.7 630.9 547.5 630.8C493 599.3 448.8 512.6 448.8 437.1C448.8 366.4 487.6 330.5 537.3 352.2C543.4 303.7 575.9 282.8 615.1 305.5C633.9 316.4 651.2 335.5 664.7 358.5C684.3 329.4 717.7 322 755.5 343.8C816 378.6 865 474.7 865 558.3Z" fill="url(#paint1_linear_510:1544)"/>
<path opacity="0.2" d="M382.6 643.9L336.2 617.1V601.4L382.6 628.2C386.4 630.4 391.9 634.8 396.6 641.6C401.7 648.9 405.3 658.1 405.3 668.1C405.3 679.1 402.5 685.4 397.1 687.2C392.1 688.9 386.2 686 382.5 683.9L363.4 672.9L363.3 672.8C361.7 671.8 359.1 670.9 357 671.5C355.3 672 353.4 673.7 353.4 679.8C353.4 685.9 355.3 689.7 356.9 691.9C358.9 694.7 361.5 696.7 363.1 697.5L363.3 697.6L421.6 731.3V747L363.6 713.5C359.6 711.4 353.9 707 348.9 700C343.5 692.4 339.7 682.7 339.8 671.9C339.8 661.2 343.5 655.7 348.9 654.2C353.9 652.8 359.6 654.8 363.6 657.3L382.5 668.2C385.2 669.8 387.3 670.5 388.6 670C389.6 669.7 391.6 668.2 391.6 660.2C391.6 655.1 389.9 651.7 388.4 649.4C386.6 646.8 384.1 644.8 382.6 643.9Z" fill="white"/>
<path d="M346.199 613.2C346.199 626.1 338.599 632.2 329.299 626.9C319.999 621.5 312.399 606.7 312.399 593.7C312.399 580.8 319.999 574.7 329.299 580C338.599 585.4 346.199 600.3 346.199 613.2Z" fill="#F2994A"/>
<path d="M445.199 752.2C445.199 765.1 437.599 771.2 428.299 765.9C418.999 760.5 411.399 745.7 411.399 732.7C411.399 719.8 418.999 713.7 428.299 719C437.599 724.4 445.199 739.3 445.199 752.2Z" fill="#F2994A"/>
<path opacity="0.07" d="M525.1 420L825 593.1V751.8L525 578.7L525.1 420Z" fill="url(#paint2_linear_510:1544)"/>
<path opacity="0.3" d="M485 440L784.9 613.1V771.8L485 598.7V440Z" fill="url(#paint3_linear_510:1544)"/>
<path d="M511.899 534.5C511.899 547.3 519.499 562 528.799 567.4C538.099 572.8 545.699 566.8 545.699 554C545.699 541.2 538.099 526.5 528.799 521.1C519.499 515.7 511.899 521.7 511.899 534.5Z" fill="#F2994A"/>
<path opacity="0.15" d="M554.2 559.2C554.2 565.1 557.7 572 562.1 574.5C566.4 577 569.9 574.2 569.9 568.3C569.9 562.4 566.4 555.5 562 553C557.7 550.5 554.2 553.3 554.2 559.2Z" fill="white"/>
<path opacity="0.15" d="M578.3 573.1C578.3 579 581.8 585.9 586.2 588.4C590.5 590.9 594 588.1 594 582.2C594 576.3 590.5 569.4 586.1 566.9C581.8 564.4 578.3 567.2 578.3 573.1Z" fill="white"/>
<path opacity="0.15" d="M709.199 600.1V690.4L697.399 683.6V593.3L709.199 600.1Z" fill="white"/>
<path opacity="0.15" d="M735 615.1V705.4L723.2 698.6V608.3L735 615.1Z" fill="white"/>
<path opacity="0.15" d="M760.9 630.1V720.4L749.1 713.6V623.3L760.9 630.1Z" fill="white"/>
<path opacity="0.07" d="M525 636.9L824.9 810V968.7L525 795.6V636.9Z" fill="url(#paint4_linear_510:1544)"/>
<path opacity="0.3" d="M485 657.9L784.9 831V989.7L485 816.6V657.9Z" fill="url(#paint5_linear_510:1544)"/>
<path d="M511.899 752.4C511.899 765.2 519.499 779.9 528.799 785.3C538.099 790.7 545.699 784.7 545.699 771.9C545.699 759.1 538.099 744.4 528.799 739C519.499 733.6 511.899 739.6 511.899 752.4Z" fill="#F2994A"/>
<path opacity="0.15" d="M554.2 777.2C554.2 783.1 557.7 790 562.1 792.5C566.4 795 569.9 792.2 569.9 786.3C569.9 780.4 566.4 773.5 562 771C557.7 768.5 554.2 771.2 554.2 777.2Z" fill="white"/>
<path opacity="0.15" d="M578.2 791.1C578.2 797 581.7 803.9 586.1 806.4C590.4 808.9 593.9 806.1 593.9 800.2C593.9 794.3 590.4 787.4 586 784.9C581.7 782.3 578.2 785.1 578.2 791.1Z" fill="white"/>
<path opacity="0.15" d="M709.199 821.1V911.4L697.399 904.6V814.3L709.199 821.1Z" fill="white"/>
<path opacity="0.15" d="M735 836.1V926.4L723.2 919.6V829.3L735 836.1Z" fill="white"/>
<path opacity="0.15" d="M760.9 851.1V941.4L749.1 934.6V844.3L760.9 851.1Z" fill="white"/>
<path opacity="0.3" d="M218.7 204.9L405.6 312.8V659.1L218.7 551.1V204.9Z" fill="url(#paint6_linear_510:1544)"/>
<path d="M334.1 330.3C334.1 347.6 324.1 355.8 311.8 348.6C299.5 341.4 289.5 321.6 289.5 304.3C289.5 287 299.5 278.8 311.8 286C324.1 293.2 334.1 313 334.1 330.3Z" fill="#F2C94C"/>
<path d="M311.8 362.5C291.9 350.9 275.5 361.8 272.6 386.8C272.1 391.1 275.4 396.9 279.4 399.2L344.3 437.1C348.3 439.4 351.6 437.6 351.1 432.6C348.1 404.1 331.6 374.1 311.8 362.5Z" fill="#F2C94C"/>
<path opacity="0.15" d="M256.2 429.5L367.6 493.8V507.4L256.2 443.1V429.5Z" fill="white"/>
<path opacity="0.15" d="M267.5 463L355.8 513.9V527.5L267.5 476.6V463Z" fill="white"/>
<path d="M290 520.2L160 445.1V483.8L290 558.9V520.2Z" fill="#F2C94C"/>
<path opacity="0.2" d="M445.9 161L473.7 215.6C477.5 223.1 476.9 230.6 472.3 232.4C467.7 234.2 460.9 229.5 457.1 222L456.8 221.3V281.9C456.8 288.8 452 291.6 446 288.2C440 284.7 435.2 276.4 435.2 269.5V208.9L434.9 209.2C431.1 212.3 424.2 209.1 419.7 202C415.1 194.9 414.5 186.7 418.3 183.6L445.9 161Z" fill="url(#paint7_linear_510:1544)"/>
<path opacity="0.2" d="M445.9 967.2L418.1 912.6C414.3 905.1 414.9 897.6 419.5 895.8C424.1 894 430.9 898.7 434.7 906.2L435 906.9V846.3C435 839.4 439.8 836.6 445.8 840C451.8 843.5 456.6 851.8 456.6 858.7V919.3L456.9 919C460.7 915.9 467.6 919.1 472.1 926.2C476.7 933.3 477.3 941.5 473.5 944.6L445.9 967.2Z" fill="url(#paint8_linear_510:1544)"/>
<defs>
<linearGradient id="paint0_linear_510:1544" x1="972.811" y1="319.335" x2="663.383" y2="612.834" gradientUnits="userSpaceOnUse">
<stop stop-color="white"/>
<stop offset="1" stop-color="white" stop-opacity="0"/>
</linearGradient>
<linearGradient id="paint1_linear_510:1544" x1="922.8" y1="367.335" x2="613.373" y2="660.834" gradientUnits="userSpaceOnUse">
<stop stop-color="white"/>
<stop offset="1" stop-color="white" stop-opacity="0"/>
</linearGradient>
<linearGradient id="paint2_linear_510:1544" x1="668.869" y1="432.69" x2="680.043" y2="713.409" gradientUnits="userSpaceOnUse">
<stop stop-color="white"/>
<stop offset="1" stop-color="white" stop-opacity="0"/>
</linearGradient>
<linearGradient id="paint3_linear_510:1544" x1="628.867" y1="452.69" x2="640.041" y2="733.409" gradientUnits="userSpaceOnUse">
<stop stop-color="white"/>
<stop offset="1" stop-color="white" stop-opacity="0"/>
</linearGradient>
<linearGradient id="paint4_linear_510:1544" x1="668.848" y1="649.624" x2="680.022" y2="930.342" gradientUnits="userSpaceOnUse">
<stop stop-color="white"/>
<stop offset="1" stop-color="white" stop-opacity="0"/>
</linearGradient>
<linearGradient id="paint5_linear_510:1544" x1="628.846" y1="670.624" x2="640.02" y2="951.342" gradientUnits="userSpaceOnUse">
<stop stop-color="white"/>
<stop offset="1" stop-color="white" stop-opacity="0"/>
</linearGradient>
<linearGradient id="paint6_linear_510:1544" x1="425.63" y1="235.336" x2="259.72" y2="522.775" gradientUnits="userSpaceOnUse">
<stop stop-color="white"/>
<stop offset="1" stop-color="white" stop-opacity="0"/>
</linearGradient>
<linearGradient id="paint7_linear_510:1544" x1="465.683" y1="216.076" x2="414.962" y2="244.35" gradientUnits="userSpaceOnUse">
<stop stop-color="white"/>
<stop offset="1" stop-color="white" stop-opacity="0"/>
</linearGradient>
<linearGradient id="paint8_linear_510:1544" x1="426.064" y1="912.161" x2="476.785" y2="883.887" gradientUnits="userSpaceOnUse">
<stop stop-color="white"/>
<stop offset="1" stop-color="white" stop-opacity="0"/>
</linearGradient>
</defs>
</svg>
