<svg width="1910" height="1220" viewBox="0 0 1910 1220" fill="none" xmlns="http://www.w3.org/2000/svg">
<path d="M1084.33 770.49C1084.33 772.53 1084.28 774.089 1084.16 775.165H1045.66C1045.83 778.679 1046.68 781.682 1048.21 784.175C1049.74 786.669 1051.75 788.567 1054.24 789.87C1056.74 791.117 1059.46 791.74 1062.4 791.74C1066.26 791.74 1069.49 790.805 1072.09 788.935C1074.76 787.065 1076.51 784.544 1077.36 781.37H1083.65C1082.52 785.904 1080.08 789.615 1076.34 792.505C1072.66 795.339 1068.01 796.755 1062.4 796.755C1058.04 796.755 1054.13 795.792 1050.67 793.865C1047.22 791.882 1044.5 789.105 1042.51 785.535C1040.59 781.909 1039.62 777.687 1039.62 772.87C1039.62 768.054 1040.59 763.832 1042.51 760.205C1044.44 756.579 1047.13 753.802 1050.59 751.875C1054.04 749.949 1057.98 748.985 1062.4 748.985C1066.82 748.985 1070.68 749.949 1073.96 751.875C1077.31 753.802 1079.86 756.409 1081.61 759.695C1083.43 762.925 1084.33 766.524 1084.33 770.49ZM1078.3 770.32C1078.35 766.864 1077.65 763.917 1076.17 761.48C1074.76 759.044 1072.8 757.202 1070.31 755.955C1067.81 754.709 1065.09 754.085 1062.15 754.085C1057.73 754.085 1053.96 755.502 1050.84 758.335C1047.73 761.169 1046 765.164 1045.66 770.32H1078.3ZM1119.53 796.075L1107.54 777.375L1095.98 796.075H1089.69L1104.65 772.87L1089.86 749.665H1096.58L1108.39 768.11L1119.87 749.665H1126.07L1111.28 772.615L1126.24 796.075H1119.53ZM1140.18 759.865C1141.65 756.749 1143.98 754.17 1147.15 752.13C1150.38 750.034 1154.2 748.985 1158.62 748.985C1162.82 748.985 1166.59 749.977 1169.93 751.96C1173.33 753.887 1175.96 756.664 1177.83 760.29C1179.76 763.86 1180.72 768.025 1180.72 772.785C1180.72 777.545 1179.76 781.739 1177.83 785.365C1175.96 788.992 1173.33 791.797 1169.93 793.78C1166.59 795.764 1162.82 796.755 1158.62 796.755C1154.26 796.755 1150.46 795.735 1147.23 793.695C1144 791.599 1141.65 788.992 1140.18 785.875V818.005H1134.31V749.665H1140.18V759.865ZM1174.69 772.785C1174.69 768.932 1173.92 765.617 1172.39 762.84C1170.92 760.007 1168.88 757.854 1166.27 756.38C1163.67 754.907 1160.72 754.17 1157.43 754.17C1154.26 754.17 1151.34 754.935 1148.68 756.465C1146.07 757.995 1144 760.177 1142.47 763.01C1140.94 765.844 1140.18 769.13 1140.18 772.87C1140.18 776.61 1140.94 779.897 1142.47 782.73C1144 785.564 1146.07 787.745 1148.68 789.275C1151.34 790.805 1154.26 791.57 1157.43 791.57C1160.72 791.57 1163.67 790.834 1166.27 789.36C1168.88 787.83 1170.92 785.649 1172.39 782.815C1173.92 779.925 1174.69 776.582 1174.69 772.785ZM1197.62 757.91C1198.93 755.02 1200.91 752.782 1203.57 751.195C1206.29 749.609 1209.61 748.815 1213.52 748.815V755.02H1211.9C1207.6 755.02 1204.14 756.182 1201.53 758.505C1198.93 760.829 1197.62 764.71 1197.62 770.15V796.075H1191.67V749.665H1197.62V757.91ZM1264.46 770.49C1264.46 772.53 1264.4 774.089 1264.29 775.165H1225.78C1225.95 778.679 1226.8 781.682 1228.33 784.175C1229.86 786.669 1231.88 788.567 1234.37 789.87C1236.86 791.117 1239.58 791.74 1242.53 791.74C1246.38 791.74 1249.61 790.805 1252.22 788.935C1254.88 787.065 1256.64 784.544 1257.49 781.37H1263.78C1262.65 785.904 1260.21 789.615 1256.47 792.505C1252.79 795.339 1248.14 796.755 1242.53 796.755C1238.17 796.755 1234.26 795.792 1230.8 793.865C1227.34 791.882 1224.62 789.105 1222.64 785.535C1220.71 781.909 1219.75 777.687 1219.75 772.87C1219.75 768.054 1220.71 763.832 1222.64 760.205C1224.57 756.579 1227.26 753.802 1230.71 751.875C1234.17 749.949 1238.11 748.985 1242.53 748.985C1246.95 748.985 1250.8 749.949 1254.09 751.875C1257.43 753.802 1259.98 756.409 1261.74 759.695C1263.55 762.925 1264.46 766.524 1264.46 770.49ZM1258.42 770.32C1258.48 766.864 1257.77 763.917 1256.3 761.48C1254.88 759.044 1252.93 757.202 1250.43 755.955C1247.94 754.709 1245.22 754.085 1242.27 754.085C1237.85 754.085 1234.09 755.502 1230.97 758.335C1227.85 761.169 1226.12 765.164 1225.78 770.32H1258.42ZM1291.32 796.755C1286 796.755 1281.63 795.537 1278.23 793.1C1274.89 790.607 1273.02 787.235 1272.62 782.985H1278.74C1279.03 785.592 1280.25 787.717 1282.4 789.36C1284.61 790.947 1287.56 791.74 1291.24 791.74C1294.47 791.74 1296.99 790.975 1298.8 789.445C1300.67 787.915 1301.61 786.017 1301.61 783.75C1301.61 782.164 1301.1 780.86 1300.08 779.84C1299.06 778.82 1297.76 778.027 1296.17 777.46C1294.64 776.837 1292.54 776.185 1289.88 775.505C1286.42 774.599 1283.62 773.692 1281.46 772.785C1279.31 771.879 1277.47 770.547 1275.94 768.79C1274.47 766.977 1273.73 764.569 1273.73 761.565C1273.73 759.299 1274.41 757.202 1275.77 755.275C1277.13 753.349 1279.06 751.819 1281.55 750.685C1284.04 749.552 1286.88 748.985 1290.05 748.985C1295.04 748.985 1299.06 750.26 1302.12 752.81C1305.18 755.304 1306.82 758.76 1307.05 763.18H1301.1C1300.93 760.46 1299.85 758.279 1297.87 756.635C1295.94 754.935 1293.28 754.085 1289.88 754.085C1286.88 754.085 1284.44 754.794 1282.57 756.21C1280.7 757.627 1279.76 759.384 1279.76 761.48C1279.76 763.294 1280.3 764.795 1281.38 765.985C1282.51 767.119 1283.9 768.025 1285.54 768.705C1287.19 769.329 1289.4 770.037 1292.17 770.83C1295.52 771.737 1298.18 772.615 1300.16 773.465C1302.15 774.315 1303.85 775.562 1305.26 777.205C1306.68 778.849 1307.42 781.03 1307.47 783.75C1307.47 786.244 1306.79 788.482 1305.43 790.465C1304.07 792.392 1302.18 793.922 1299.74 795.055C1297.3 796.189 1294.5 796.755 1291.32 796.755ZM1334.66 796.755C1329.33 796.755 1324.97 795.537 1321.57 793.1C1318.22 790.607 1316.35 787.235 1315.96 782.985H1322.08C1322.36 785.592 1323.58 787.717 1325.73 789.36C1327.94 790.947 1330.89 791.74 1334.57 791.74C1337.8 791.74 1340.32 790.975 1342.14 789.445C1344.01 787.915 1344.94 786.017 1344.94 783.75C1344.94 782.164 1344.43 780.86 1343.41 779.84C1342.39 778.82 1341.09 778.027 1339.5 777.46C1337.97 776.837 1335.87 776.185 1333.21 775.505C1329.75 774.599 1326.95 773.692 1324.8 772.785C1322.64 771.879 1320.8 770.547 1319.27 768.79C1317.8 766.977 1317.06 764.569 1317.06 761.565C1317.06 759.299 1317.74 757.202 1319.1 755.275C1320.46 753.349 1322.39 751.819 1324.88 750.685C1327.37 749.552 1330.21 748.985 1333.38 748.985C1338.37 748.985 1342.39 750.26 1345.45 752.81C1348.51 755.304 1350.15 758.76 1350.38 763.18H1344.43C1344.26 760.46 1343.18 758.279 1341.2 756.635C1339.27 754.935 1336.61 754.085 1333.21 754.085C1330.21 754.085 1327.77 754.794 1325.9 756.21C1324.03 757.627 1323.09 759.384 1323.09 761.48C1323.09 763.294 1323.63 764.795 1324.71 765.985C1325.84 767.119 1327.23 768.025 1328.88 768.705C1330.52 769.329 1332.73 770.037 1335.51 770.83C1338.85 771.737 1341.51 772.615 1343.5 773.465C1345.48 774.315 1347.18 775.562 1348.6 777.205C1350.01 778.849 1350.75 781.03 1350.81 783.75C1350.81 786.244 1350.13 788.482 1348.77 790.465C1347.41 792.392 1345.51 793.922 1343.07 795.055C1340.63 796.189 1337.83 796.755 1334.66 796.755Z" fill="#323232"/>
<path d="M688.423 113.49H662.673V146.627H688.424V135.582H673.442V124.536H688.423V113.49Z" fill="#323232"/>
<path d="M719.324 113.49H693.574L693.573 135.1H708.556V137.021H693.574V147.108H719.324V125.016H704.342V123.095H719.324V113.49Z" fill="#323232"/>
<path d="M750.225 113.49H724.475V135.1H739.456V137.021H724.474V147.108H750.225V125.016H735.243V123.095H750.225V113.49Z" fill="#323232"/>
<path fill-rule="evenodd" clip-rule="evenodd" d="M707.516 359.381L638.161 339.631L622.705 161.813H792.534L777.062 339.604L707.516 359.381ZM660.042 264.111L658.137 242.302L735.57 242.302L737.505 219.97L656.24 219.97L654.308 198.161L760.805 198.161L756.967 242.302L756.448 248.159L751.132 309.259L707.62 321.628V321.632L707.522 321.659L663.971 309.259L660.992 275.016H682.335L683.849 292.409L707.527 298.967L707.546 298.962L731.258 292.395L733.727 264.111L660.042 264.111Z" fill="#323232"/>
<path d="M173.587 113.49H162.483V146.648H173.588V135.545H183.746V146.648H194.851V113.49H183.745V124.439H173.587V113.49Z" fill="#323232"/>
<path d="M199.678 124.486H209.453L209.455 146.648H220.56V124.486H230.34V113.49H199.678V124.486Z" fill="#323232"/>
<path d="M246.785 113.49H235.206V146.648H246.071V130.213L253.716 142.002H253.907L261.547 130.213V146.648H272.607V113.49H261.023L253.907 125.141L246.785 113.49Z" fill="#323232"/>
<path d="M289.241 113.49H278.133L278.132 146.648H304.857V135.688H289.241V113.49Z" fill="#323232"/>
<path fill-rule="evenodd" clip-rule="evenodd" d="M320.79 161.813L304.888 339.604L233.41 359.381L162.128 339.631L146.243 161.813H320.79ZM204.601 242.302L202.604 219.97L286.222 219.97L288.178 198.161L178.723 198.161L184.617 264.111L260.348 264.111L257.811 292.395L233.44 298.96L233.42 298.967L209.085 292.409L207.529 275.016H185.593L188.655 309.258L233.416 321.659L233.516 321.632V321.628L278.236 309.258L283.701 248.158L284.233 242.302L204.601 242.302Z" fill="#323232"/>
<path fill-rule="evenodd" clip-rule="evenodd" d="M1305.93 118.217H1064.31V354.651H1305.93V118.217ZM1146.33 304.848L1127.84 315.798C1133.19 326.908 1143.74 336.111 1161.9 336.111C1182.01 336.111 1195.8 325.636 1195.8 302.623V226.763H1173.09V302.309C1173.09 313.418 1168.39 316.274 1160.93 316.274C1153.14 316.274 1149.9 311.037 1146.33 304.848ZM1226.62 302.943L1208.13 313.417C1214.78 326.273 1228.41 336.114 1249.49 336.114C1271.06 336.114 1287.12 325.164 1287.12 305.165C1287.12 286.597 1276.25 278.345 1256.95 270.25L1251.27 267.87C1241.54 263.744 1237.33 261.044 1237.33 254.379C1237.33 248.983 1241.54 244.857 1248.19 244.857C1254.68 244.857 1258.9 247.554 1262.79 254.379L1280.47 243.268C1273.01 230.413 1262.63 225.492 1248.19 225.492C1227.92 225.492 1214.94 238.189 1214.94 254.854C1214.94 272.947 1225.81 281.518 1242.19 288.34L1247.87 290.723C1258.25 295.165 1264.41 297.864 1264.41 305.482C1264.41 311.83 1258.41 316.433 1249 316.433C1237.81 316.433 1231.49 310.72 1226.62 302.943Z" fill="#323232"/>
<path d="M1740.1 264.512C1738.79 264.935 1737.44 265.343 1736.07 265.739C1733.03 256.382 1728.92 246.432 1723.9 236.153C1728.69 226.117 1732.64 216.295 1735.6 206.998C1738.05 207.69 1740.44 208.419 1742.74 209.189C1764.98 216.628 1778.55 227.628 1778.55 236.103C1778.55 245.132 1763.89 256.852 1740.1 264.512Z" fill="#323232"/>
<path d="M1730.23 283.519C1732.64 295.324 1732.98 305.998 1731.39 314.342C1729.96 321.839 1727.08 326.838 1723.52 328.84C1715.95 333.1 1699.75 327.562 1682.28 312.956C1680.28 311.281 1678.26 309.493 1676.24 307.602C1683.01 300.404 1689.78 292.036 1696.38 282.744C1708 281.743 1718.98 280.105 1728.93 277.869C1729.42 279.791 1729.86 281.676 1730.23 283.519Z" fill="#323232"/>
<path d="M1630.41 328.104C1623.01 330.643 1617.12 330.716 1613.56 328.72C1605.97 324.472 1602.82 308.069 1607.12 286.069C1607.63 283.47 1608.22 280.884 1608.88 278.316C1618.72 280.431 1629.62 281.954 1641.27 282.872C1647.91 291.964 1654.88 300.321 1661.9 307.64C1660.4 309.042 1658.88 310.408 1657.32 311.737C1647.99 319.659 1638.65 325.277 1630.41 328.104Z" fill="#323232"/>
<path d="M1595.74 264.456C1584.03 260.564 1574.35 255.506 1567.71 249.986C1561.75 245.025 1558.74 240.1 1558.74 236.103C1558.74 227.6 1571.79 216.753 1593.55 209.38C1596.28 208.459 1599.04 207.615 1601.82 206.851C1604.83 216.357 1608.78 226.296 1613.54 236.346C1608.71 246.547 1604.71 256.644 1601.68 266.261C1599.69 265.707 1597.71 265.105 1595.74 264.456Z" fill="#323232"/>
<path d="M1607.37 187.589C1602.85 165.158 1605.85 148.237 1613.4 143.991C1621.44 139.468 1639.22 145.918 1657.96 162.086C1659.15 163.119 1660.36 164.202 1661.56 165.321C1654.58 172.607 1647.68 180.901 1641.09 189.941C1629.79 190.959 1618.97 192.594 1609.02 194.784C1608.41 192.399 1607.85 190.001 1607.37 187.589Z" fill="#323232"/>
<path d="M1711.04 212.464C1708.69 208.521 1706.25 204.627 1703.73 200.785C1711.4 201.726 1718.74 202.976 1725.64 204.507C1723.57 210.957 1720.99 217.703 1717.95 224.617C1715.73 220.522 1713.42 216.47 1711.04 212.464Z" fill="#323232"/>
<path d="M1668.76 172.451C1673.49 177.435 1678.24 183.002 1682.9 189.042C1673.44 188.607 1663.96 188.605 1654.5 189.035C1659.17 183.052 1663.95 177.493 1668.76 172.451Z" fill="#323232"/>
<path d="M1626.21 212.533C1623.85 216.507 1621.59 220.533 1619.43 224.61C1616.44 217.719 1613.88 210.944 1611.79 204.401C1618.65 202.91 1625.96 201.691 1633.58 200.766C1631.03 204.632 1628.57 208.555 1626.21 212.533Z" fill="#323232"/>
<path d="M1633.8 272.152C1625.93 271.299 1618.5 270.142 1611.65 268.692C1613.77 262.034 1616.39 255.113 1619.44 248.074C1621.61 252.154 1623.88 256.183 1626.25 260.159C1628.67 264.214 1631.19 268.213 1633.8 272.152Z" fill="#323232"/>
<path d="M1669.04 300.461C1664.18 295.358 1659.32 289.715 1654.58 283.645C1659.18 283.82 1663.88 283.909 1668.64 283.909C1673.54 283.909 1678.39 283.803 1683.15 283.596C1678.47 289.777 1673.75 295.428 1669.04 300.461Z" fill="#323232"/>
<path d="M1718.05 247.716C1721.26 254.831 1723.97 261.714 1726.12 268.26C1719.15 269.805 1711.63 271.049 1703.7 271.974C1706.24 268.06 1708.7 264.098 1711.08 260.089C1713.49 256.016 1715.82 251.89 1718.05 247.716Z" fill="#323232"/>
<path fill-rule="evenodd" clip-rule="evenodd" d="M1702.18 255.106C1698.54 261.251 1694.7 267.28 1690.65 273.183C1683.52 273.678 1676.15 273.933 1668.64 273.933C1661.17 273.933 1653.89 273.707 1646.88 273.265C1642.74 267.377 1638.82 261.337 1635.14 255.16C1631.48 249.016 1628.06 242.739 1624.89 236.343C1628.05 229.945 1631.46 223.665 1635.11 217.515C1638.76 211.365 1642.64 205.354 1646.76 199.49C1653.91 198.965 1661.24 198.69 1668.65 198.69C1676.09 198.69 1683.42 198.967 1690.57 199.496C1694.65 205.351 1698.51 211.343 1702.15 217.463C1705.81 223.598 1709.27 229.848 1712.51 236.201C1709.3 242.62 1705.86 248.925 1702.18 255.106ZM1690.11 236.104C1690.11 224.586 1680.5 215.249 1668.64 215.249C1656.79 215.249 1647.18 224.586 1647.18 236.104C1647.18 247.622 1656.79 256.959 1668.64 256.959C1680.5 256.959 1690.11 247.622 1690.11 236.104Z" fill="#323232"/>
<path d="M1723.36 143.694C1731.41 148.205 1734.54 166.393 1729.48 190.245C1729.15 191.798 1728.79 193.346 1728.4 194.887C1718.43 192.652 1707.61 190.988 1696.27 189.954C1689.67 180.816 1682.82 172.507 1675.95 165.316C1677.75 163.63 1679.6 161.987 1681.48 160.39C1699.22 145.384 1715.81 139.46 1723.36 143.694Z" fill="#323232"/>
<path fill-rule="evenodd" clip-rule="evenodd" d="M1584.48 284.859C1553.02 274.408 1533.07 255.869 1533.07 236.009C1533.07 216.688 1554.08 199.525 1584.48 189.226C1578.18 157.922 1583.11 132.697 1600.39 122.979C1618.31 112.899 1643.01 119.685 1668.77 141.911C1693.53 120.97 1718.48 112.524 1735.78 122.215C1753.72 132.266 1759.61 156.439 1752.65 189.444C1783.69 199.827 1803.69 216.609 1803.69 236.009C1803.69 256.13 1785.36 271.939 1752.59 282.467C1759.04 314.163 1753.66 340.616 1735.97 350.566C1718.77 360.247 1694.1 352.216 1669.7 331.809C1644.66 353.075 1618.29 359.943 1600.58 350.02C1583.36 340.368 1578.2 315.594 1584.48 284.859ZM1738.35 197.386C1740.94 198.112 1743.52 198.902 1746.08 199.754C1772.04 208.438 1788.81 222.039 1788.81 236.103C1788.81 250.771 1770.89 265.112 1743.33 273.982C1741.88 274.451 1740.39 274.902 1738.87 275.338C1739.41 277.459 1739.89 279.541 1740.31 281.581C1745.75 308.279 1741.56 330.223 1728.67 337.474C1716.18 344.495 1696.01 337.598 1675.59 320.518C1673.36 318.657 1671.2 316.737 1669.09 314.758C1667.41 316.332 1665.74 317.834 1664.07 319.25C1642.99 337.162 1621.33 344.593 1608.43 337.364C1595.93 330.361 1592.01 309.935 1597.04 284.209C1597.58 281.413 1598.21 278.633 1598.92 275.871C1596.74 275.266 1594.57 274.607 1592.42 273.897C1565.92 265.095 1548.48 250.577 1548.48 236.103C1548.48 222.09 1564.73 208.579 1590.17 199.959C1593.02 198.996 1595.99 198.09 1599.07 197.241C1598.41 194.677 1597.82 192.098 1597.29 189.506C1592.02 163.325 1595.73 142.402 1608.25 135.357C1621.32 128.009 1643.07 135.899 1664.77 154.625C1666.12 155.793 1667.45 156.984 1668.76 158.2C1670.7 156.372 1672.7 154.593 1674.74 152.863C1695.45 135.351 1715.95 128.025 1728.49 135.052C1741.57 142.378 1745.4 164.633 1739.54 192.258C1739.17 193.974 1738.78 195.684 1738.35 197.386Z" fill="#323232"/>
<path fill-rule="evenodd" clip-rule="evenodd" d="M117.937 647.651V884.085H353.81V647.651H117.937ZM169.652 775.916V766.281L169.829 766.341V756.647L211.107 756.469C233.81 756.469 252.503 756.529 252.503 756.706C252.739 756.824 252.739 761.139 252.739 766.459V775.916H222.075V863.397H200.316V775.916H169.652ZM322.203 764.863C318.076 760.548 313.476 757.829 307.461 756.41L307.579 756.292C303.51 755.228 293.781 754.874 289.653 755.701C276.916 758.065 268.011 766.341 265.476 778.162C264.65 781.532 264.945 789.925 265.83 793.353C267.009 797.314 269.545 802.101 272.316 805.175C277.151 810.258 282.341 813.568 294.547 818.77C305.162 823.499 308.936 825.627 310.823 828.227C312.179 830.296 312.592 831.538 312.592 834.257C312.592 837.212 311.648 839.34 309.466 841.35C304.395 845.96 294.134 846.492 286.469 842.532C283.933 841.113 279.569 836.976 277.623 833.902L276.09 831.833L269.427 835.734L260.581 840.877L258.341 842.295C258.105 842.709 262.291 849.034 264.473 851.398C270.016 857.486 279.039 862.215 288.473 863.988C292.896 864.757 302.331 864.875 306.459 864.166C319.609 861.979 328.808 855.299 332.582 845.428C335.943 836.384 334.823 824.326 329.81 816.642C325.388 809.786 318.076 804.998 301.211 797.727C292.071 793.708 289.122 791.757 287.53 788.506C286.822 786.97 286.469 785.906 286.469 784.014C286.469 777.808 291.186 774.084 298.262 774.557C303.157 774.911 306.282 776.803 309.348 781.177C310.292 782.714 311.235 783.719 311.471 783.541C317.663 779.699 327.864 772.783 327.864 772.429C327.629 771.365 324.385 767.227 322.203 764.863Z" fill="#323232"/>
<path d="M724.27 636.29C717.673 632.515 709.074 632.532 702.472 636.29C694.334 640.86 686.197 645.431 678.059 650.001C653.13 664.002 628.2 678.004 603.268 691.997C596.832 695.442 592.492 702.475 592.561 709.775V821.977C592.515 829.419 597.079 836.519 603.68 839.917C607.264 841.858 610.809 843.872 614.354 845.887C620.206 849.212 626.057 852.537 632.08 855.526C643.251 861.112 657.227 862.348 668.535 856.522C677.714 851.693 681.791 840.955 681.779 831.086C681.826 807.698 681.818 784.31 681.81 760.922C681.806 747.28 681.801 733.638 681.808 719.996C682.026 718.351 680.812 716.592 679.048 716.631C674.822 716.563 670.591 716.592 666.365 716.62C664.768 716.466 663.21 717.816 663.331 719.449C663.301 738.72 663.305 757.994 663.31 777.269C663.314 794.793 663.318 812.317 663.296 829.839C663.388 834.929 660.01 839.821 655.189 841.541C649.727 843.574 643.64 841.997 638.682 839.343C635.703 837.67 632.725 835.999 629.746 834.329C623.922 831.063 618.099 827.797 612.281 824.515C611.697 824.241 611.213 823.795 610.893 823.238C610.572 822.681 610.431 822.039 610.488 821.4C610.488 809.061 610.489 796.721 610.489 784.381C610.491 759.703 610.492 735.025 610.488 710.35C610.328 708.858 611.232 707.514 612.578 706.905C630.916 696.633 649.249 686.347 667.582 676.06C682.198 667.86 696.813 659.659 711.432 651.466C712.005 651.077 712.682 650.87 713.374 650.871C714.067 650.872 714.744 651.081 715.315 651.471C729.87 659.627 744.423 667.787 758.976 675.947C777.376 686.264 795.775 696.581 814.18 706.889C815.532 707.497 816.396 708.864 816.259 710.35C816.257 723.814 816.258 737.279 816.259 750.745C816.26 774.295 816.262 797.846 816.248 821.395C816.345 822.705 815.681 823.974 814.478 824.549C797.501 834.097 780.511 843.623 763.521 853.15C748.033 861.835 732.545 870.52 717.066 879.22C716.867 879.331 716.662 879.45 716.454 879.572C715.042 880.396 713.444 881.33 711.862 880.421C706.988 877.678 702.149 874.874 697.31 872.07C693.7 869.978 690.091 867.887 686.469 865.821C685.547 865.235 684.373 864.984 683.411 865.639C683.181 865.763 682.951 865.886 682.72 866.01C679.147 867.93 675.556 869.859 671.667 871.088C671.173 871.288 670.648 871.448 670.119 871.61C668.684 872.05 667.227 872.496 666.303 873.736C667.435 875.282 669.101 876.203 670.752 877.116C671.187 877.357 671.622 877.597 672.045 877.848C676.565 880.451 681.089 883.049 685.613 885.648C691.014 888.751 696.416 891.854 701.813 894.965C708.341 899.111 717.113 899.406 723.852 895.574C739.525 886.785 755.197 877.99 770.868 869.195C788.264 859.432 805.66 849.669 823.061 839.913C829.646 836.496 834.233 829.423 834.186 821.976V709.775C834.25 702.623 830.075 695.716 823.834 692.22C804.401 681.291 784.963 670.376 765.525 659.461C751.773 651.739 738.02 644.017 724.27 636.29Z" fill="#323232"/>
<path d="M774.168 720.532C761.189 713.465 745.747 713.089 731.323 714.012C720.903 715.06 709.943 717.986 702.351 725.588C694.564 733.23 692.87 745.57 696.568 755.546C699.219 762.595 705.89 767.179 712.789 769.604C721.677 772.797 731.011 773.784 740.348 774.771C748.864 775.672 757.383 776.573 765.569 779.148C768.913 780.276 772.807 782.001 773.831 785.703C774.776 790.087 773.74 795.184 770.241 798.23C763.955 803.294 755.429 803.654 747.636 803.983C747.21 804.001 746.786 804.019 746.365 804.038C745.541 804.025 744.711 804.016 743.876 804.007C734.768 803.906 725.09 803.799 717.244 798.765C712.806 795.764 710.893 790.451 710.116 785.39C710.029 783.812 708.781 782.365 707.098 782.485C702.884 782.434 698.67 782.445 694.455 782.479C692.984 782.354 691.456 783.419 691.375 784.945C691.037 793.987 694.438 803.355 701.401 809.367C709.543 816.514 720.519 819.27 731.066 820.466C742.283 821.553 753.745 821.491 764.79 819.042C773.093 817.118 781.417 813.576 787.133 807.067C794.181 799.158 795.566 787.383 792.406 777.531C789.989 770.18 783.084 765.465 776.024 763.039C766.425 759.689 756.391 758.368 746.353 757.046C738.561 756.02 730.767 754.993 723.17 753.017C723.042 752.977 722.911 752.936 722.78 752.896C719.842 751.981 716.407 750.911 715.12 747.87C713.694 743.445 714.908 737.95 718.904 735.228C724.109 731.635 730.716 731.106 736.86 730.781C737.08 730.779 737.3 730.777 737.521 730.775C745.743 730.694 754.428 730.608 761.945 734.351C766.973 736.914 769.886 742.175 771.088 747.488C771.311 749.049 772.343 750.676 774.118 750.609C776.982 750.667 779.846 750.656 782.709 750.645C784.031 750.64 785.353 750.635 786.674 750.637C788.112 750.74 789.686 749.913 789.967 748.416C789.789 737.313 784.218 725.947 774.168 720.532Z" fill="#323232"/>
<path d="M1667.28 629.788C1667.17 629.339 1667.05 628.986 1666.93 628.736C1666.56 634.337 1666.38 636.438 1660.91 642.039C1652.53 648.34 1609.17 683.169 1605.71 754.052C1602.31 820.134 1655.45 859.597 1662.66 864.639C1667.78 876.167 1667.29 895.819 1667.29 895.819L1674.76 898.271C1674.76 898.271 1673.3 879.019 1675.49 869.917C1676.1 867.083 1677.58 864.609 1679.34 862.54C1680.63 861.671 1684 859.296 1688.44 855.393C1688.67 855.275 1688.79 855.215 1688.79 855.215L1688.78 855.091C1706.47 839.427 1740.35 800.087 1728.88 735.673C1717.46 687.322 1694.03 664.125 1682.25 652.456C1678.81 649.046 1676.36 646.62 1675.49 644.839C1671.3 639.238 1667.29 629.439 1667.29 629.439L1667.3 629.867C1667.29 629.841 1667.28 629.814 1667.28 629.788Z" fill="#323232"/>
</svg>
